<svg width="32" height="34" viewBox="0 0 32 34" fill="none" xmlns="http://www.w3.org/2000/svg">
<g clip-path="url(#clip0_14_5)">
<path fill-rule="evenodd" clip-rule="evenodd" d="M0.214085 20.3722L0.2 20.3667C0.208451 20.3584 0.216901 20.3501 0.222535 20.3445C0.261972 20.2311 0.338028 20.137 0.433803 20.0706L16.2873 6.5431C16.3549 6.37985 16.4366 6.2166 16.5296 6.05888C17.1465 5.00745 18.1803 4.33785 19.307 4.1331C18.631 2.96546 17.693 1.9832 16.6 1.41045L16.5549 1.38831C16.1887 1.20016 16.0451 0.754684 16.2394 0.392216C16.431 0.0325155 16.8845 -0.108598 17.2535 0.0823202L17.3014 0.107223L17.3042 0.104456C17.6282 0.267704 17.9408 0.461389 18.2394 0.679977C19.4113 1.54326 20.3746 2.78838 21.0254 4.18567C21.3831 4.27422 21.7324 4.41256 22.0676 4.60071C22.7944 5.01298 23.3408 5.61064 23.6817 6.29961V6.30237L23.6986 6.34111C23.9606 6.90556 24.0873 7.52259 24.0648 8.14515C26.4479 9.34046 28.3916 11.1196 29.893 13.4051C29.9493 13.4604 29.9972 13.5296 30.0254 13.6098L30.0282 13.6154L30.0451 13.6403H30.0394C31.4169 16.6175 32.0197 19.4923 31.9944 22.2786C31.9718 25.0898 31.3099 27.8042 30.1662 30.4466C30.0845 30.6347 29.907 30.7565 29.7127 30.7758L0.619718 33.9966C0.312676 34.0298 0.0366197 33.8112 0.0028169 33.5096C0.0028169 33.4902 0 33.4708 0 33.4515C0 25.9531 0.0901408 24.0605 0.191549 20.505C0.191549 20.4635 0.2 20.4165 0.214085 20.3722ZM17.538 6.44625L17.5352 6.44902L17.5324 6.45455L17.5296 6.45732L17.5268 6.46009L17.5239 6.46562L17.5211 6.46839L17.5183 6.47392L17.5155 6.47669L17.5127 6.48222L17.5099 6.48776L17.507 6.49052L17.5042 6.49606L17.5014 6.49882L17.4986 6.50159L17.4958 6.50713L17.493 6.51266L17.4901 6.51543L17.4873 6.52096L17.4845 6.52649L17.4817 6.53203L17.4789 6.5348L17.4761 6.54033V6.5431L17.4732 6.54586L17.4704 6.5514L17.4676 6.55693L17.4648 6.56246L17.462 6.56523L17.4648 6.5597L17.462 6.56523L17.4592 6.57076L17.4563 6.5763L17.4535 6.58183L17.4423 6.59843L17.4366 6.6095L17.4338 6.61504L17.4254 6.63164L17.4225 6.63717L17.4169 6.64824L17.4085 6.66484L17.4 6.68144L17.3944 6.69528L17.3916 6.69804L17.3831 6.71465L17.3803 6.72295L17.3746 6.73125L17.3662 6.74785V6.75062L17.3577 6.76445L17.3493 6.77828V6.78105L17.3408 6.79765L17.3352 6.80595L17.3324 6.81425L17.3239 6.83086L17.3211 6.83639L17.3155 6.85022L17.2958 6.89726L17.293 6.9028L17.2845 6.9194L17.2817 6.92493L17.2761 6.936L17.2676 6.9526L17.262 6.9692L17.2563 6.98027L17.2535 6.9858L17.2479 7.00241L17.2451 7.01071L17.2338 7.03838V7.04114L17.2282 7.05774L17.2169 7.09371L17.2141 7.10202L17.2113 7.11032L17.2056 7.12692V7.12968L17.2 7.14352L17.1944 7.16012V7.16289L17.1831 7.18779L17.1803 7.19886L17.1775 7.20716L17.1718 7.22376V7.22929L17.169 7.24313L17.1634 7.25973L17.1577 7.27633L17.1549 7.2874L17.1493 7.3123V7.31784L17.1465 7.3289L17.1408 7.3455L17.1352 7.36211L17.1324 7.37594V7.38147L17.1296 7.39808L17.1268 7.40638L17.1239 7.41744L17.1211 7.43405V7.43681L17.1183 7.45341L17.1099 7.47002V7.47278L17.107 7.48938L17.1042 7.49769L17.1014 7.50599L17.0986 7.52259V7.52536L17.0958 7.53919L17.093 7.55579V7.55856L17.0901 7.57516V7.58623V7.59453L17.0873 7.61113V7.61666L17.0845 7.6305L17.0817 7.6471L17.0789 7.66647V7.67754V7.68307L17.0761 7.70244C17.0451 7.97083 17.0507 8.24199 17.0958 8.50485C17.2451 9.32662 17.7465 10.0792 18.5408 10.5302C19.9662 11.3382 21.7859 10.8595 22.6085 9.45944C22.6732 9.34876 22.7296 9.23532 22.7803 9.12187L22.7887 9.09974L22.7916 9.0942L22.7972 9.0776L22.8056 9.05547L22.8085 9.0527L22.8169 9.03333L22.8254 9.01119L22.8338 8.98906L22.8423 8.96969V8.96692L22.8507 8.94479L22.8563 8.92819L22.8592 8.92265L22.8676 8.90052L22.8732 8.88668L22.8761 8.87562L22.8845 8.85348L22.8873 8.84241L22.8901 8.82858L22.8986 8.80644L22.9014 8.80091L22.907 8.78431L22.9127 8.76217V8.7594L22.9183 8.74004L22.9239 8.7179L22.9296 8.69577L22.9352 8.6764V8.67363L22.9408 8.65149L22.9437 8.63489V8.62936L22.9493 8.60722L22.9521 8.59339L22.9549 8.58232L22.9606 8.56019L22.9634 8.55188L22.9662 8.53805L22.9718 8.51592V8.51038L22.9746 8.49378L22.9775 8.47164V8.46888L22.9803 8.44951L22.9831 8.42737L22.9859 8.40524L22.9887 8.38587V8.3831L22.9916 8.36097L22.9944 8.34437V8.33606L22.9972 8.31393V8.30286V8.29179L23 8.26966V8.26136V8.24752L23.0028 8.22539V8.21985V8.20325V8.18112V8.16175V8.13961V8.11748V8.09534V8.07597V8.07044V8.0483V8.0317V8.0234V8.00127V7.9902V7.97913V7.957V7.94869V7.90996V7.90442V7.88782V7.86569V7.86292V7.84078L23 7.81865L22.9972 7.79651V7.77715V7.77161L22.9944 7.74948L22.9916 7.73287V7.72457L22.9887 7.70244V7.69137V7.6803L22.9859 7.65817C22.9493 7.35657 22.8648 7.06328 22.7352 6.78659L22.7211 6.75892C22.4676 6.25257 22.0676 5.80986 21.5324 5.50826L21.507 5.49443L21.4817 5.4806L21.4648 5.47229L21.4535 5.46676L21.4282 5.45293L21.4028 5.43909L21.3972 5.43632L21.3775 5.42526L21.3521 5.41419L21.3296 5.40312L21.3268 5.40035L21.2732 5.37545L21.2592 5.36992L21.2451 5.36438L21.2197 5.35332L21.1944 5.34225H21.1916L21.169 5.33395L21.1437 5.32288L21.1239 5.31458L21.1155 5.31181L21.0873 5.30075L21.062 5.28968L21.0535 5.28691L21.0366 5.28138L21.0085 5.27308L20.9831 5.26478L20.9549 5.25647L20.9268 5.24817L20.9099 5.24264L20.8986 5.23987L20.8704 5.23157L20.8451 5.2205L20.8394 5.21774L20.8169 5.2122L20.7887 5.2039L20.7662 5.19837H20.7606L20.7324 5.19284L20.7042 5.1873L20.693 5.18453L20.6789 5.18177L20.6507 5.17623L20.6225 5.1707H20.6197L20.5944 5.16517L20.5662 5.15963L20.5465 5.15686H20.538L20.5099 5.15133L20.4817 5.1458H20.4732L20.4254 5.14026L20.4 5.1375H20.3972L20.369 5.13473L20.3408 5.13196H20.3239H20.3127L20.2845 5.1292L20.2563 5.12643H20.2507L20.2282 5.12366L20.1775 5.1209H20.1718H20.1437H20.1155H20.1042H20.0873H20.0592H20.031H20.0056H19.9775H19.9577H19.9493H19.9211H19.893H19.8845H19.8648L19.8366 5.12366L19.831 5.11813H19.8282L19.8 5.1209C18.907 5.19284 18.0592 5.65768 17.538 6.44625ZM16.0225 8.57125L2.57183 19.6141L28.2592 13.3027C26.9746 12.0991 25.4254 10.7571 23.6958 9.67249C23.6451 9.7804 23.5887 9.88554 23.5296 9.98792C22.4113 11.8888 19.938 12.5418 18.0028 11.4433C16.9239 10.8318 16.2423 9.80807 16.0394 8.693L16.0225 8.57125ZM21.6338 9.36259C21.7465 9.28789 21.7746 9.13847 21.7014 9.0278C21.6282 8.91712 21.4732 8.88668 21.3634 8.96139C21.0845 9.14401 20.7972 9.28235 20.5042 9.37366C20.2113 9.46497 19.9099 9.51478 19.5972 9.52308C19.462 9.52584 19.3549 9.63375 19.3577 9.76657C19.3606 9.89938 19.4704 10.0045 19.6056 10.0018C19.9634 9.99345 20.3127 9.93812 20.6507 9.83021C20.9887 9.72506 21.3183 9.56735 21.6338 9.36259ZM1.37465 23.33C1.57183 23.4269 1.76901 23.532 1.96338 23.6344L1.96901 23.6372C4.57183 25.0234 5.88169 23.7783 7.23944 22.4917C8.75493 21.0529 10.3268 19.5587 13.7014 21.3572C14.2986 21.6754 14.893 21.9909 15.5718 22.0019C16.2507 22.013 17.0338 21.7252 18.0282 20.8398L18.1014 20.754C21 17.8515 22.6366 18.7231 24.3042 19.6085C26.9099 20.9975 28.2197 19.7524 29.5746 18.463C29.7887 18.2583 30.0056 18.0535 30.2254 17.8571C29.9521 16.7586 29.569 15.6435 29.0676 14.5118C12.7887 18.3219 17.5775 17.2041 1.4169 20.9837C1.40845 21.2078 1.39437 22.1126 1.37465 23.33ZM30.5042 19.2129C30.3916 19.318 30.2817 19.4231 30.169 19.5311C28.6535 20.9699 27.0817 22.464 23.707 20.6655C23.1099 20.3473 22.5155 20.0319 21.8366 20.0208C21.1577 20.0097 20.3746 20.2975 19.3831 21.1801L19.307 21.2687C16.4085 24.1684 14.7718 23.2996 13.1042 22.4114L13.0986 22.4087C10.4958 21.0252 9.18592 22.2675 7.83099 23.5542C6.31549 24.9957 4.74366 26.4871 1.3662 24.6886L1.35211 24.6775L1.29296 28.6093C1.61972 28.7505 1.93521 28.9192 2.2507 29.088L2.25634 29.0908C4.86197 30.4798 6.17183 29.2347 7.52676 27.9453C9.04225 26.5065 10.6141 25.0123 13.9887 26.8108C14.5859 27.129 15.1803 27.4445 15.862 27.4555C16.5408 27.4666 17.3239 27.1788 18.3183 26.2934L18.3887 26.2132C21.2901 23.3079 22.9268 24.1795 24.5944 25.0677C27.2 26.4539 28.5099 25.2116 29.8648 23.9222C30.1465 23.6538 30.431 23.3854 30.7239 23.1391C30.7408 22.8569 30.7493 22.5719 30.7521 22.2869C30.7606 21.2742 30.6817 20.2505 30.5042 19.2129ZM30.5324 24.921L30.4648 24.9847C28.9493 26.4235 27.3775 27.9176 24.0028 26.1191C23.4056 25.8009 22.8113 25.4855 22.1324 25.4744C21.4535 25.4633 20.6704 25.7511 19.6761 26.6365L19.6028 26.7223C16.7042 29.6248 15.0676 28.7532 13.4028 27.8678C10.7944 26.4788 9.48451 27.7239 8.12958 29.0105C6.61408 30.4493 5.04225 31.9435 1.66479 30.145L1.65915 30.1422C1.53239 30.073 1.40282 30.0066 1.27324 29.9402C1.25634 31.2933 1.24225 32.3696 1.24225 32.7597L29.1493 29.6774C29.8028 28.1141 30.2732 26.5314 30.5324 24.921Z" fill="#FFD6E8"/>
</g>
<defs>
<clipPath id="clip0_14_5">
<rect width="32" height="34" fill="white"/>
</clipPath>
</defs>
</svg>
