<svg width="1090" height="686" viewBox="0 0 1090 686" fill="none" xmlns="http://www.w3.org/2000/svg">
<path d="M961.263 -237.798C1082.57 -182.367 1222.08 -141.671 1310.46 -59.5767C1398.84 21.816 1436.96 144.606 1389.31 241.436C1341.65 338.265 1209.08 409.834 1097.3 472.282C985.525 534.73 894.544 588.056 786.234 629.454C677.923 671.553 553.149 701.023 445.705 677.869C339.127 654.012 249.013 577.531 169.296 496.84C89.5796 416.851 19.3944 332.652 3.79764 242.839C-12.6656 152.325 26.3263 56.1973 83.5143 -29.4053C139.836 -115.008 214.353 -188.682 308.8 -254.638C403.247 -320.594 517.623 -377.429 626.8 -370.412C735.977 -364.097 839.956 -293.23 961.263 -237.798Z" fill="#FFD6E8"/>
</svg>
