<svg width="626" height="524" viewBox="0 0 626 524" fill="none" xmlns="http://www.w3.org/2000/svg">
<g clip-path="url(#clip0_57_9)">
<path d="M505.003 511.669L83.4667 128.531L149.384 1.6062e-07L612.862 508.522L505.003 511.669Z" fill="#F2F2F2"/>
<path d="M313 108.409C327.085 108.409 338.504 96.9745 338.504 82.8697C338.504 68.7648 327.085 57.3306 313 57.3306C298.915 57.3306 287.496 68.7648 287.496 82.8697C287.496 96.9745 298.915 108.409 313 108.409Z" fill="#F2F2F2"/>
<path d="M425.062 144.009C429.757 144.009 433.563 140.197 433.563 135.496C433.563 130.794 429.757 126.983 425.062 126.983C420.367 126.983 416.561 130.794 416.561 135.496C416.561 140.197 420.367 144.009 425.062 144.009Z" fill="#8FEBFF"/>
<path d="M425.062 211.339C429.757 211.339 433.563 207.528 433.563 202.826C433.563 198.125 429.757 194.313 425.062 194.313C420.367 194.313 416.561 198.125 416.561 202.826C416.561 207.528 420.367 211.339 425.062 211.339Z" fill="#8FEBFF"/>
<path d="M510.074 228.365C514.769 228.365 518.575 224.554 518.575 219.852C518.575 215.151 514.769 211.339 510.074 211.339C505.379 211.339 501.573 215.151 501.573 219.852C501.573 224.554 505.379 228.365 510.074 228.365Z" fill="#8FEBFF"/>
<path d="M313 524C485.865 524 626 517.07 626 508.522C626 499.973 485.865 493.043 313 493.043C140.135 493.043 -1.6886e-08 499.973 -3.7716e-08 508.522C-5.85459e-08 517.07 140.135 524 313 524Z" fill="#F2F2F2"/>
<path d="M496.098 257.121C492.548 251.257 480.147 251.409 480.147 251.409C468.857 268.207 441.717 250.363 441.717 250.363C421.56 259.394 409.261 230.615 409.261 230.615C382.138 226.554 386.328 198.028 386.328 198.028C372.834 195.315 376.62 170.884 376.62 170.884C376.62 170.884 384.108 164.734 380.423 160.236C378.081 157.376 377.935 149.167 378.14 143.564C360.531 138.201 342.225 135.482 323.82 135.496C220.954 135.496 137.565 219.001 137.565 322.009C137.565 425.017 220.954 508.522 323.82 508.522C426.685 508.522 510.074 425.017 510.074 322.009C510.096 299.63 506.088 277.431 498.24 256.478C497.284 257.559 496.543 257.856 496.098 257.121Z" fill="#8FEBFF"/>
<path opacity="0.1" d="M496.098 257.121C492.548 251.257 480.147 251.409 480.147 251.409C468.857 268.207 441.717 250.363 441.717 250.363C421.56 259.394 409.261 230.615 409.261 230.615C382.138 226.554 386.328 198.028 386.328 198.028C372.834 195.315 376.62 170.884 376.62 170.884C376.62 170.884 384.108 164.734 380.423 160.236C378.081 157.376 377.935 149.167 378.14 143.564C360.531 138.201 342.225 135.482 323.82 135.496C220.954 135.496 137.565 219.001 137.565 322.009C137.565 425.017 220.954 508.522 323.82 508.522C426.685 508.522 510.074 425.017 510.074 322.009C510.096 299.63 506.088 277.431 498.24 256.478C497.284 257.559 496.543 257.856 496.098 257.121Z" fill="black"/>
<path d="M485.06 256.384C481.684 250.808 469.89 250.952 469.89 250.952C459.152 266.928 433.341 249.957 433.341 249.957C414.171 258.546 402.474 231.176 402.474 231.176C376.678 227.313 380.663 200.184 380.663 200.184C367.83 197.604 371.431 174.369 371.431 174.369C371.431 174.369 378.552 168.52 375.048 164.242C372.82 161.522 372.681 153.715 372.876 148.386C356.129 143.286 338.719 140.7 321.215 140.713C223.385 140.713 144.078 220.13 144.078 318.096C144.078 416.062 223.385 495.479 321.215 495.479C419.045 495.479 498.352 416.062 498.352 318.096C498.373 296.813 494.561 275.701 487.097 255.773C486.188 256.801 485.483 257.083 485.06 256.384Z" fill="#8FEBFF"/>
<path d="M300.064 245.575C300.064 245.575 269.518 226.11 240.36 245.575C230.155 252.388 225.052 262.097 222.731 271.839C218.603 289.161 223.13 307.423 234.168 321.386L300.131 404.824C302.393 407.731 305.427 409.941 308.884 411.203C312.342 412.465 316.084 412.727 319.684 411.959C319.826 411.927 319.97 411.893 320.115 411.858C322.721 411.216 325.169 410.046 327.307 408.421C329.445 406.795 331.228 404.749 332.546 402.407L378.42 321.735C386.907 307.043 390.386 289.984 388.331 273.137C386.179 256.546 378.223 239.058 355.603 233.062C355.603 233.062 329.222 221.938 300.064 245.575Z" fill="#FFD6E8"/>
<path opacity="0.1" d="M300.064 245.575C300.064 245.575 269.518 226.11 240.36 245.575C230.155 252.388 225.052 262.097 222.731 271.839C218.603 289.161 223.13 307.423 234.168 321.386L300.131 404.824C302.393 407.731 305.427 409.941 308.884 411.203C312.342 412.465 316.084 412.727 319.684 411.959C319.826 411.927 319.97 411.893 320.115 411.858C322.721 411.216 325.169 410.046 327.307 408.421C329.445 406.795 331.228 404.749 332.546 402.407L378.42 321.735C386.907 307.043 390.386 289.984 388.331 273.137C386.179 256.546 378.223 239.058 355.603 233.062C355.603 233.062 329.222 221.938 300.064 245.575Z" fill="black"/>
<path d="M300.375 250.273C300.375 250.273 271.721 232.013 244.369 250.273C234.795 256.664 230.009 265.771 227.831 274.91C223.958 291.16 228.205 308.291 238.56 321.389L300.438 399.659C302.56 402.386 305.405 404.46 308.649 405.643C311.892 406.827 315.403 407.072 318.779 406.352C318.913 406.322 319.048 406.291 319.184 406.258C321.629 405.656 323.925 404.558 325.931 403.033C327.936 401.508 329.609 399.588 330.845 397.392L373.879 321.716C381.84 307.934 385.103 291.932 383.175 276.128C381.157 260.565 373.694 244.159 352.474 238.534C352.474 238.534 327.727 228.1 300.375 250.273Z" fill="#FFD6E8"/>
<path opacity="0.1" d="M301.49 281.583C301.49 281.583 287.549 272.699 274.242 281.583C270.11 284.383 267.225 288.681 266.196 293.57C265.305 297.489 265.311 301.56 266.216 305.476C267.12 309.392 268.897 313.053 271.416 316.183C271.416 316.183 307.107 358.268 310.445 357.52C310.51 357.505 310.575 357.49 310.641 357.474C313.046 356.896 337.252 316.342 337.252 316.342C341.125 309.637 342.713 301.851 341.775 294.162C340.793 286.59 337.162 278.608 326.838 275.872C326.838 275.872 314.798 270.795 301.49 281.583Z" fill="black"/>
<path opacity="0.1" d="M214.412 348.094L218.319 354.616L226.134 367.659L228.739 376.789L223.529 384.614L230.041 400.266L232.646 409.396L227.437 414.613L237.856 422.439" fill="black"/>
<path opacity="0.1" d="M405.876 290.706L405.876 301.14L399.363 318.096L395.456 327.226L401.969 338.964L404.574 346.79L414.993 350.703L418.901 357.225L418.901 372.876" fill="black"/>
<path opacity="0.1" d="M472.302 301.14L461.882 307.662C461.882 307.662 456.672 310.27 456.672 311.575L456.672 322.009" fill="black"/>
<path opacity="0.1" d="M425.413 264.62L428.018 277.663L425.413 286.793" fill="black"/>
<path opacity="0.1" d="M435.833 382.006L428.018 393.744L418.901 401.57L418.901 406.787L424.11 413.309L424.11 421.135L420.203 428.96" fill="black"/>
<path opacity="0.1" d="M361.591 160.277L348.567 160.277L338.147 169.407L321.214 178.537L313.4 185.059L313.4 187.668L296.467 196.797L291.258 205.927" fill="black"/>
<path opacity="0.1" d="M220.924 182.45L209.202 205.927L205.294 215.057L196.177 226.796C196.177 226.796 189.665 238.535 188.362 239.839C187.06 241.143 177.942 243.752 177.942 243.752L190.967 256.795" fill="black"/>
<path opacity="0.1" d="M168.825 272.446L166.22 289.401L168.825 299.836L168.825 318.096L161.01 352.007L168.825 361.137L177.942 372.876" fill="black"/>
<path opacity="0.1" d="M188.362 280.272L196.177 284.185L201.387 301.14L211.807 298.531L217.016 307.662" fill="black"/>
<path opacity="0.1" d="M331.635 449.829L352.474 447.22L361.591 438.09L374.616 438.09" fill="black"/>
<path opacity="0.1" d="M205.294 422.438L213.109 431.568L226.134 435.481L235.252 438.09L237.856 452.437" fill="black"/>
<path opacity="0.1" d="M358.986 378.094L368.104 371.572L372.012 361.137L379.827 359.833L383.733 346.79" fill="black"/>
<path d="M125.074 50.3655L146.882 50.3655C153.768 50.3655 160.371 53.1045 165.24 57.98C170.109 62.8554 172.844 69.468 172.844 76.363L172.844 124.199L99.1129 124.199L99.1129 76.363C99.1129 72.949 99.7844 69.5683 101.089 66.4142C102.394 63.26 104.306 60.3941 106.717 57.98C109.128 55.5659 111.99 53.6509 115.139 52.3444C118.289 51.0379 121.665 50.3655 125.074 50.3655V50.3655Z" fill="#2F2E41"/>
<path d="M147.464 460.602C147.464 460.602 145.145 475.306 141.281 477.628C137.417 479.95 161.375 485.367 161.375 485.367L165.239 462.15L147.464 460.602Z" fill="#FBBEBE"/>
<path d="M176.059 292.663L184.56 302.724L180.696 337.55L177.605 406.428C177.605 406.428 183.787 466.02 177.605 467.568C171.422 469.115 143.6 468.341 144.373 464.472C145.145 460.602 145.918 457.507 147.464 452.089C149.01 446.672 145.918 427.324 145.918 427.324L149.782 405.655L135.871 312.011L176.059 292.663Z" fill="#2F2E41"/>
<path d="M148.237 475.307C148.237 475.307 139.735 473.759 138.963 475.307C138.19 476.854 123.506 493.107 121.187 493.107C118.869 493.107 101.866 508.585 119.642 509.359C137.417 510.133 166.785 496.202 166.785 496.202C166.785 496.202 162.463 476.509 162.692 477.456C162.921 478.402 148.237 479.176 148.237 475.307Z" fill="#2F2E41"/>
<path d="M138.963 439.706C138.963 439.706 160.602 463.698 161.375 466.019C162.148 468.341 173.74 466.019 173.74 466.019L178.377 450.541L174.513 445.124L152.874 427.324L138.963 439.706Z" fill="#FBBEBE"/>
<path d="M169.876 457.506L158.67 468.069C158.67 468.069 172.968 490.011 172.968 492.333C172.968 494.654 173.74 514.002 181.469 510.906C189.197 507.811 189.97 476.854 189.97 476.854C189.97 476.854 189.197 445.124 184.56 442.802C179.923 440.48 169.76 441.214 169.76 441.214C169.76 441.214 176.059 456.733 169.876 457.506Z" fill="#2F2E41"/>
<path d="M105.731 223.785C105.731 223.785 101.866 236.168 101.093 239.263C100.321 242.359 95.6836 250.872 95.6836 264.028C95.6836 277.185 97.2293 292.663 95.6836 294.211C94.1379 295.759 69.4071 382.437 80.2268 391.724C91.0466 401.011 126.597 431.968 128.916 435.837C131.234 439.707 132.007 448.994 136.644 447.446C141.281 445.898 159.056 430.42 159.829 427.324C160.602 424.228 149.782 418.811 149.782 418.811C149.782 418.811 128.143 387.081 122.733 387.854C117.323 388.628 118.096 383.985 118.869 381.663C119.642 379.341 121.187 377.794 118.869 377.794C116.55 377.794 118.096 371.602 118.869 368.507C119.642 365.411 137.417 323.62 137.417 323.62L184.56 302.724C184.56 302.724 182.242 246.229 165.239 230.75L161.375 221.463C161.375 221.463 118.096 218.368 105.731 223.785Z" fill="#2F2E41"/>
<path d="M125.052 101.507C125.052 101.507 128.916 128.594 119.642 130.142C110.368 131.689 102.639 130.916 102.639 131.689C102.639 132.463 125.824 156.455 125.824 156.455L147.464 154.907L166.785 134.011C166.785 134.011 149.01 130.916 149.01 120.081C149.01 109.246 148.237 101.507 148.237 101.507L125.052 101.507Z" fill="#FBBEBE"/>
<path opacity="0.1" d="M125.052 101.507C125.052 101.507 128.916 128.594 119.642 130.142C110.368 131.689 102.639 130.916 102.639 131.689C102.639 132.463 125.824 156.455 125.824 156.455L147.464 154.907L166.785 134.011C166.785 134.011 149.01 130.916 149.01 120.081C149.01 109.246 148.237 101.507 148.237 101.507L125.052 101.507Z" fill="black"/>
<path d="M137.031 112.728C150.262 112.728 160.989 101.987 160.989 88.7371C160.989 75.4871 150.262 64.7458 137.031 64.7458C123.799 64.7458 113.073 75.4871 113.073 88.7371C113.073 101.987 123.799 112.728 137.031 112.728Z" fill="#FBBEBE"/>
<path d="M115.777 127.82C115.777 127.82 85.6367 131.689 83.3182 141.75C80.9997 151.811 98.775 214.498 101.094 219.915C103.412 225.333 102.639 229.202 102.639 229.202C106.136 226.583 110.153 224.745 114.419 223.81C118.684 222.876 123.101 222.867 127.37 223.785C142.054 226.881 162.921 225.333 162.921 225.333C162.921 225.333 169.876 196.698 171.422 193.602C172.968 190.507 179.15 173.481 179.15 168.837C179.15 164.194 188.424 144.846 188.424 144.846C188.424 144.846 183.787 130.915 166.785 131.689C166.785 131.689 159.369 128.365 157.28 130.801C155.192 133.237 143.6 144.072 128.916 139.429C114.232 134.785 115.777 127.82 115.777 127.82Z" fill="#8FEBFF"/>
<path d="M91.8194 140.976L83.3182 140.976L78.6812 202.115C78.6812 202.115 95.6836 206.759 98.0022 203.663C100.321 200.568 91.8194 140.976 91.8194 140.976Z" fill="#8FEBFF"/>
<path d="M173.74 140.976L188.424 144.846C188.424 144.846 199.244 184.315 200.017 185.089C200.79 185.863 201.563 190.507 201.563 190.507C201.563 190.507 201.563 191.281 203.108 193.602C204.654 195.924 206.973 194.376 205.427 197.472C203.881 200.568 201.563 199.02 203.108 202.115C204.654 205.211 203.881 213.724 203.881 213.724C203.881 213.724 200.017 199.02 186.106 202.889L176.832 161.098L173.74 140.976Z" fill="#8FEBFF"/>
<path d="M155.736 82.9022L118.51 82.9022L110.082 63.5049L162.057 63.5049L155.736 82.9022Z" fill="#2F2E41"/>
<path d="M113.626 97.0957C114.62 96.8072 114.803 94.4207 114.035 91.7654C113.267 89.1101 111.838 87.1915 110.843 87.48C109.849 87.7685 109.666 90.155 110.434 92.8103C111.202 95.4656 112.631 97.3843 113.626 97.0957Z" fill="#FFB9B9"/>
<path d="M163.989 92.8103C164.758 90.155 164.574 87.7685 163.58 87.4799C162.586 87.1914 161.157 89.1101 160.388 91.7654C159.62 94.4207 159.803 96.8071 160.798 97.0957C161.792 97.3842 163.221 95.4656 163.989 92.8103Z" fill="#FFB9B9"/>
<path d="M157.659 195.087C165.342 195.087 171.57 188.85 171.57 181.157C171.57 173.463 165.342 167.226 157.659 167.226C149.976 167.226 143.748 173.463 143.748 181.157C143.748 188.85 149.976 195.087 157.659 195.087Z" fill="#8FEBFF"/>
<path opacity="0.1" d="M157.659 195.087C165.342 195.087 171.57 188.85 171.57 181.157C171.57 173.463 165.342 167.226 157.659 167.226C149.976 167.226 143.748 173.463 143.748 181.157C143.748 188.85 149.976 195.087 157.659 195.087Z" fill="black"/>
<path d="M157.659 193.705C164.58 193.705 170.191 188.087 170.191 181.157C170.191 174.226 164.58 168.608 157.659 168.608C150.738 168.608 145.128 174.226 145.128 181.157C145.128 188.087 150.738 193.705 157.659 193.705Z" fill="#8FEBFF"/>
<path opacity="0.1" d="M157.107 174.063C157.107 174.063 153.914 172.028 150.866 174.063C149.92 174.704 149.259 175.689 149.023 176.808C148.819 177.706 148.821 178.638 149.028 179.535C149.235 180.432 149.642 181.27 150.219 181.987L157.114 190.709C157.35 191.012 157.667 191.243 158.029 191.375C158.39 191.507 158.781 191.535 159.157 191.454L159.202 191.444C159.475 191.377 159.731 191.254 159.954 191.084C160.178 190.915 160.364 190.701 160.502 190.456L165.297 182.024C166.184 180.488 166.548 178.705 166.333 176.944C166.283 175.972 165.925 175.041 165.309 174.287C164.694 173.533 163.854 172.996 162.912 172.755C162.912 172.755 160.154 171.592 157.107 174.063Z" fill="black"/>
<path d="M157.139 174.554C157.139 174.554 154.144 172.645 151.285 174.554C150.397 175.156 149.778 176.079 149.556 177.129C149.365 177.971 149.366 178.846 149.561 179.687C149.755 180.528 150.137 181.315 150.678 181.987L157.146 190.169C157.368 190.454 157.665 190.67 158.004 190.794C158.343 190.918 158.71 190.943 159.063 190.868L159.105 190.858C159.361 190.795 159.601 190.681 159.81 190.521C160.02 190.362 160.195 190.161 160.324 189.932L164.822 182.022C165.654 180.581 165.995 178.908 165.794 177.256C165.748 176.344 165.411 175.471 164.834 174.764C164.256 174.057 163.468 173.553 162.585 173.327C162.585 173.327 159.998 172.236 157.139 174.554Z" fill="#FFD6E8"/>
<path opacity="0.1" d="M157.256 177.827C156.826 177.566 156.334 177.428 155.832 177.428C155.33 177.428 154.837 177.566 154.408 177.827C153.976 178.119 153.674 178.568 153.567 179.079C153.473 179.489 153.474 179.915 153.569 180.324C153.663 180.733 153.849 181.116 154.112 181.443C154.112 181.443 157.843 185.842 158.192 185.764L158.212 185.759C158.464 185.699 160.994 181.46 160.994 181.46C161.399 180.759 161.564 179.945 161.466 179.141C161.444 178.698 161.28 178.273 160.999 177.929C160.718 177.585 160.335 177.34 159.905 177.23C159.45 177.087 158.966 177.067 158.5 177.171C158.035 177.276 157.606 177.502 157.256 177.827V177.827Z" fill="black"/>
<path d="M145.294 202.826C152.977 202.826 159.205 196.589 159.205 188.896C159.205 181.202 152.977 174.965 145.294 174.965C137.611 174.965 131.383 181.202 131.383 188.896C131.383 196.589 137.611 202.826 145.294 202.826Z" fill="#8FEBFF"/>
<path opacity="0.1" d="M145.294 202.826C152.977 202.826 159.205 196.589 159.205 188.896C159.205 181.202 152.977 174.965 145.294 174.965C137.611 174.965 131.383 181.202 131.383 188.896C131.383 196.589 137.611 202.826 145.294 202.826Z" fill="black"/>
<path d="M145.294 201.445C152.215 201.445 157.825 195.826 157.825 188.896C157.825 181.965 152.215 176.347 145.294 176.347C138.373 176.347 132.762 181.965 132.762 188.896C132.762 195.826 138.373 201.445 145.294 201.445Z" fill="#8FEBFF"/>
<path opacity="0.1" d="M144.741 181.802C144.741 181.802 141.548 179.767 138.501 181.802C137.554 182.443 136.894 183.428 136.658 184.547C136.454 185.445 136.455 186.377 136.662 187.274C136.87 188.171 137.277 189.009 137.853 189.726L144.748 198.448C144.985 198.751 145.302 198.982 145.663 199.114C146.025 199.246 146.416 199.274 146.792 199.193L146.837 199.183C147.11 199.116 147.365 198.993 147.589 198.824C147.812 198.654 147.999 198.44 148.136 198.195L152.931 189.763C153.819 188.227 154.182 186.444 153.967 184.683C153.918 183.711 153.559 182.78 152.944 182.026C152.328 181.272 151.488 180.735 150.546 180.494C150.546 180.494 147.789 179.331 144.741 181.802Z" fill="black"/>
<path d="M144.774 182.293C144.774 182.293 141.779 180.384 138.92 182.293C138.032 182.895 137.412 183.818 137.191 184.868C137 185.71 137.001 186.585 137.195 187.426C137.389 188.267 137.771 189.054 138.312 189.726L144.78 197.908C145.002 198.193 145.299 198.409 145.638 198.533C145.978 198.657 146.344 198.683 146.697 198.607L146.74 198.597C146.995 198.534 147.235 198.42 147.445 198.26C147.655 198.101 147.829 197.9 147.959 197.671L152.457 189.761C153.289 188.32 153.63 186.647 153.428 184.995C153.382 184.083 153.046 183.21 152.468 182.503C151.891 181.796 151.103 181.292 150.219 181.066C150.219 181.066 147.633 179.975 144.774 182.293Z" fill="#FFD6E8"/>
<path opacity="0.1" d="M144.89 185.566C144.461 185.305 143.968 185.168 143.466 185.168C142.964 185.168 142.472 185.305 142.042 185.566C141.61 185.859 141.309 186.308 141.201 186.819C141.108 187.228 141.109 187.654 141.203 188.063C141.298 188.473 141.483 188.855 141.747 189.182C141.747 189.182 145.477 193.581 145.826 193.503L145.847 193.498C146.098 193.438 148.628 189.199 148.628 189.199C149.033 188.498 149.199 187.684 149.101 186.881C149.078 186.437 148.915 186.012 148.634 185.668C148.353 185.324 147.97 185.079 147.54 184.969C147.085 184.826 146.6 184.806 146.135 184.911C145.67 185.015 145.24 185.241 144.89 185.566V185.566Z" fill="black"/>
<path d="M134.686 154.068C134.347 153.509 133.164 153.523 133.164 153.523C132.086 155.126 129.496 153.423 129.496 153.423C127.572 154.285 126.399 151.539 126.399 151.539C123.81 151.151 124.21 148.429 124.21 148.429C122.922 148.17 123.283 145.838 123.283 145.838C123.283 145.838 123.998 145.251 123.646 144.822C123.437 144.32 123.361 143.771 123.428 143.231C119.593 142.062 115.475 142.227 111.744 143.699C108.014 145.17 104.89 147.863 102.882 151.338C100.873 154.813 100.098 158.866 100.682 162.839C101.265 166.811 103.174 170.469 106.097 173.217C109.02 175.965 112.786 177.642 116.782 177.976C120.778 178.309 124.768 177.278 128.105 175.052C131.442 172.826 133.929 169.535 135.161 165.714C136.392 161.893 136.297 157.767 134.89 154.007C134.799 154.11 134.728 154.139 134.686 154.068Z" fill="#8FEBFF"/>
<path opacity="0.1" d="M134.686 154.068C134.347 153.509 133.164 153.523 133.164 153.523C132.086 155.126 129.496 153.423 129.496 153.423C127.572 154.285 126.399 151.539 126.399 151.539C123.81 151.151 124.21 148.429 124.21 148.429C122.922 148.17 123.283 145.838 123.283 145.838C123.283 145.838 123.998 145.251 123.646 144.822C123.437 144.32 123.361 143.771 123.428 143.231C119.593 142.062 115.475 142.227 111.744 143.699C108.014 145.17 104.89 147.863 102.882 151.338C100.873 154.813 100.098 158.866 100.682 162.839C101.265 166.811 103.174 170.469 106.097 173.217C109.02 175.965 112.786 177.642 116.782 177.976C120.778 178.309 124.768 177.278 128.105 175.052C131.442 172.826 133.929 169.535 135.161 165.714C136.392 161.893 136.297 157.767 134.89 154.007C134.799 154.11 134.728 154.139 134.686 154.068Z" fill="black"/>
<path d="M133.633 153.998C133.31 153.466 132.185 153.48 132.185 153.48C131.16 155.004 128.697 153.385 128.697 153.385C126.867 154.205 125.751 151.592 125.751 151.592C123.289 151.224 123.669 148.635 123.669 148.635C122.445 148.389 122.788 146.171 122.788 146.171C122.788 146.171 123.468 145.613 123.133 145.205C122.934 144.727 122.862 144.205 122.926 143.691C119.278 142.579 115.362 142.736 111.814 144.136C108.266 145.536 105.295 148.096 103.385 151.401C101.475 154.706 100.737 158.561 101.293 162.339C101.848 166.117 103.663 169.596 106.443 172.21C109.223 174.823 112.805 176.418 116.605 176.735C120.405 177.052 124.2 176.072 127.374 173.955C130.547 171.838 132.912 168.708 134.084 165.074C135.256 161.44 135.165 157.516 133.827 153.94C133.74 154.038 133.673 154.065 133.633 153.998Z" fill="#8FEBFF"/>
<path d="M115.977 152.966C115.977 152.966 113.062 151.109 110.279 152.966C109.415 153.552 108.812 154.451 108.597 155.473C108.411 156.293 108.412 157.144 108.601 157.963C108.79 158.782 109.162 159.547 109.688 160.202L115.984 168.164C116.2 168.442 116.489 168.653 116.819 168.773C117.149 168.894 117.506 168.919 117.85 168.845L117.891 168.836C118.14 168.775 118.373 168.663 118.577 168.508C118.781 168.353 118.951 168.157 119.077 167.934L123.455 160.235C124.265 158.833 124.597 157.205 124.401 155.597C124.356 154.709 124.029 153.859 123.467 153.171C122.905 152.483 122.138 151.993 121.278 151.772C121.278 151.772 118.76 150.711 115.977 152.966Z" fill="#FFD6E8"/>
<path opacity="0.1" d="M115.977 152.966C115.977 152.966 113.062 151.109 110.279 152.966C109.415 153.552 108.812 154.451 108.597 155.473C108.411 156.293 108.412 157.144 108.601 157.963C108.79 158.782 109.162 159.547 109.688 160.202L115.984 168.164C116.2 168.442 116.489 168.653 116.819 168.773C117.149 168.894 117.506 168.919 117.85 168.845L117.891 168.836C118.14 168.775 118.373 168.663 118.577 168.508C118.781 168.353 118.951 168.157 119.077 167.934L123.455 160.235C124.265 158.833 124.597 157.205 124.401 155.597C124.356 154.709 124.029 153.859 123.467 153.171C122.905 152.483 122.138 151.993 121.278 151.772C121.278 151.772 118.76 150.711 115.977 152.966Z" fill="black"/>
<path d="M116.007 153.415C116.007 153.415 113.272 151.672 110.662 153.415C109.851 153.964 109.286 154.807 109.084 155.766C108.909 156.535 108.91 157.333 109.088 158.102C109.265 158.87 109.614 159.588 110.108 160.202L116.013 167.672C116.215 167.932 116.487 168.13 116.797 168.243C117.106 168.356 117.441 168.379 117.763 168.31L117.802 168.301C118.035 168.244 118.254 168.139 118.446 167.994C118.637 167.848 118.797 167.665 118.915 167.455L123.022 160.233C123.782 158.918 124.093 157.391 123.909 155.882C123.867 155.05 123.56 154.252 123.032 153.607C122.505 152.961 121.786 152.501 120.979 152.295C120.979 152.295 118.617 151.299 116.007 153.415Z" fill="#FFD6E8"/>
<path opacity="0.1" d="M116.113 156.403C115.721 156.165 115.272 156.039 114.813 156.039C114.355 156.039 113.905 156.165 113.513 156.403C113.119 156.67 112.843 157.08 112.745 157.547C112.66 157.921 112.661 158.309 112.747 158.683C112.833 159.057 113.003 159.406 113.243 159.705C113.243 159.705 116.65 163.721 116.968 163.65L116.987 163.646C117.901 162.382 118.749 161.072 119.526 159.72C119.896 159.08 120.047 158.337 119.958 157.603C119.937 157.198 119.788 156.81 119.531 156.496C119.275 156.182 118.925 155.959 118.532 155.858C118.117 155.727 117.675 155.709 117.25 155.805C116.825 155.9 116.433 156.107 116.113 156.403Z" fill="black"/>
<path opacity="0.1" d="M107.803 162.751L108.176 163.373L108.922 164.617L109.171 165.489L108.673 166.236L109.295 167.729L109.543 168.601L109.046 169.099L110.041 169.846" fill="black"/>
<path opacity="0.1" d="M126.076 157.274L126.076 158.27L125.454 159.888L125.081 160.759L125.702 161.879L125.951 162.626L126.946 162.999L127.318 163.622L127.318 165.116" fill="black"/>
<path opacity="0.1" d="M132.415 158.27L131.421 158.892C131.421 158.892 130.923 159.141 130.923 159.265L130.923 160.261" fill="black"/>
<path opacity="0.1" d="M127.94 154.784L128.189 156.029L127.94 156.9" fill="black"/>
<path opacity="0.1" d="M128.934 165.987L128.189 167.107L127.318 167.854L127.318 168.352L127.816 168.975L127.816 169.721L127.443 170.468" fill="black"/>
<path opacity="0.1" d="M121.849 144.826L120.606 144.826L119.612 145.698L117.996 146.569L117.25 147.191L117.25 147.44L115.634 148.311L115.137 149.183" fill="black"/>
<path opacity="0.1" d="M108.425 146.942L107.306 149.183L106.933 150.054L106.063 151.174C106.063 151.174 105.441 152.295 105.317 152.419C104.999 152.578 104.666 152.703 104.323 152.792L105.566 154.037" fill="black"/>
<path opacity="0.1" d="M103.452 155.531L103.203 157.149L103.452 158.145L103.452 159.888L102.706 163.124L103.452 163.995L104.322 165.116" fill="black"/>
<path opacity="0.1" d="M105.317 156.278L106.063 156.651L106.56 158.27L107.555 158.02L108.051 158.892" fill="black"/>
<path opacity="0.1" d="M118.99 172.459L120.979 172.211L121.849 171.34L123.092 171.34" fill="black"/>
<path opacity="0.1" d="M106.933 169.846L107.679 170.717L108.922 171.09L109.792 171.34L110.041 172.709" fill="black"/>
<path opacity="0.1" d="M121.601 165.613L122.471 164.991L122.844 163.995L123.589 163.87L123.963 162.626" fill="black"/>
<path d="M80.9997 195.924L78.6811 202.116C78.6811 202.116 77.1355 222.237 86.4095 221.463C95.6836 220.689 101.093 209.081 101.093 209.081C101.093 209.081 95.6836 194.376 89.5009 195.924C83.3182 197.472 80.9997 195.924 80.9997 195.924Z" fill="#8FEBFF"/>
<path d="M88.7281 199.794C88.7281 199.794 84.0911 213.724 89.5009 213.724C94.9108 213.724 104.958 205.211 105.731 198.246C106.503 191.281 120.415 164.968 110.368 167.289C100.321 169.611 95.6836 188.959 95.6836 188.959L88.7281 199.794Z" fill="#FBBEBE"/>
<path d="M199.244 200.568L204.072 208.648C204.072 208.648 206.2 223.785 195.38 223.785C184.56 223.785 169.103 209.081 169.103 209.081C169.103 209.081 161.375 205.985 156.738 206.759C152.101 207.533 126.597 206.759 137.417 193.602C148.237 180.446 166.785 193.602 166.785 193.602L186.106 202.889L196.153 197.472L199.244 200.568Z" fill="#FBBEBE"/>
<path d="M192.675 190.12L184.947 202.502C184.947 202.502 202.722 204.824 204.268 208.694C205.813 212.563 197.312 188.572 197.312 188.572L192.675 190.12Z" fill="#8FEBFF"/>
</g>
<defs>
<clipPath id="clip0_57_9">
<rect width="626" height="524" fill="white"/>
</clipPath>
</defs>
</svg>
