<svg width="19" height="21" viewBox="0 0 19 21" fill="none" xmlns="http://www.w3.org/2000/svg">
<g clip-path="url(#clip0_5_30)">
<path fill-rule="evenodd" clip-rule="evenodd" d="M0.127113 12.5832L0.11875 12.5798C0.123768 12.5746 0.128785 12.5695 0.13213 12.5661C0.155546 12.496 0.200704 12.4379 0.25757 12.3969L9.6706 4.04167C9.71074 3.94084 9.75924 3.84001 9.81444 3.7426C10.1807 3.09318 10.7945 2.67961 11.4636 2.55314C11.0621 1.83195 10.5052 1.22526 9.85625 0.871502L9.82949 0.85783C9.61206 0.741619 9.52676 0.466473 9.64217 0.242596C9.7559 0.0204278 10.0252 -0.0667304 10.2443 0.0511895L10.2727 0.0665704L10.2744 0.0648614C10.4667 0.165691 10.6524 0.28532 10.8297 0.42033C11.5254 0.953533 12.0974 1.72258 12.4838 2.58561C12.6962 2.6403 12.9036 2.72575 13.1026 2.84196C13.5342 3.0966 13.8586 3.46574 14.061 3.89128V3.89299L14.071 3.91691C14.2266 4.26554 14.3019 4.64665 14.2885 5.03117C15.7034 5.76945 16.8575 6.86833 17.7489 8.27995C17.7824 8.31413 17.8108 8.35685 17.8276 8.40641L17.8292 8.40983L17.8393 8.42521H17.8359C18.6538 10.2641 19.0117 12.0397 18.9967 13.7607C18.9833 15.497 18.5902 17.1735 17.9112 18.8056C17.8627 18.9218 17.7573 18.997 17.6419 19.009L0.367958 20.9982C0.185651 21.0187 0.021743 20.8837 0.00167254 20.6974C0.00167254 20.6855 0 20.6735 0 20.6615C0 16.0302 0.0535211 14.8612 0.113732 12.6652C0.113732 12.6396 0.11875 12.6105 0.127113 12.5832ZM10.4132 3.98185L10.4115 3.98356L10.4099 3.98698L10.4082 3.98869L10.4065 3.9904L10.4048 3.99382L10.4032 3.99553L10.4015 3.99894L10.3998 4.00065L10.3982 4.00407L10.3965 4.00749L10.3948 4.0092L10.3931 4.01262L10.3915 4.01432L10.3898 4.01603L10.3881 4.01945L10.3864 4.02287L10.3848 4.02458L10.3831 4.028L10.3814 4.03141L10.3798 4.03483L10.3781 4.03654L10.3764 4.03996V4.04167L10.3747 4.04338L10.3731 4.04679L10.3714 4.05021L10.3697 4.05363L10.368 4.05534L10.3697 4.05192L10.368 4.05534L10.3664 4.05876L10.3647 4.06218L10.363 4.06559L10.3563 4.07585L10.353 4.08268L10.3513 4.0861L10.3463 4.09636L10.3446 4.09977L10.3413 4.10661L10.3363 4.11686L10.3313 4.12712L10.3279 4.13566L10.3262 4.13737L10.3212 4.14763L10.3195 4.15275L10.3162 4.15788L10.3112 4.16813V4.16984L10.3062 4.17839L10.3011 4.18693V4.18864L10.2961 4.19889L10.2928 4.20402L10.2911 4.20915L10.2861 4.2194L10.2844 4.22282L10.2811 4.23137L10.2694 4.26042L10.2677 4.26384L10.2627 4.27409L10.261 4.27751L10.2577 4.28434L10.2526 4.2946L10.2493 4.30485L10.246 4.31169L10.2443 4.31511L10.2409 4.32536L10.2393 4.33049L10.2326 4.34758V4.34929L10.2292 4.35954L10.2225 4.38176L10.2209 4.38688L10.2192 4.39201L10.2158 4.40226V4.40397L10.2125 4.41252L10.2092 4.42277V4.42448L10.2025 4.43986L10.2008 4.4467L10.1991 4.45182L10.1958 4.46208V4.4655L10.1941 4.47404L10.1908 4.48429L10.1874 4.49455L10.1857 4.50138L10.1824 4.51677V4.52018L10.1807 4.52702L10.1774 4.53727L10.174 4.54753L10.1724 4.55607V4.55949L10.1707 4.56974L10.169 4.57487L10.1673 4.58171L10.1657 4.59196V4.59367L10.164 4.60392L10.159 4.61418V4.61589L10.1573 4.62614L10.1556 4.63127L10.154 4.63639L10.1523 4.64665V4.64836L10.1506 4.6569L10.1489 4.66716V4.66887L10.1473 4.67912V4.68596V4.69108L10.1456 4.70134V4.70475L10.1439 4.7133L10.1423 4.72355L10.1406 4.73552V4.74235V4.74577L10.1389 4.75773C10.1205 4.9235 10.1239 5.09098 10.1506 5.25334C10.2393 5.76091 10.537 6.22575 11.0086 6.50431C11.8549 7.00334 12.9354 6.70768 13.4238 5.84294C13.4622 5.77458 13.4957 5.70451 13.5258 5.63444L13.5308 5.62077L13.5325 5.61735L13.5358 5.6071L13.5408 5.59343L13.5425 5.59172L13.5475 5.57975L13.5526 5.56608L13.5576 5.55241L13.5626 5.54045V5.53874L13.5676 5.52507L13.571 5.51481L13.5726 5.51139L13.5776 5.49772L13.581 5.48918L13.5827 5.48234L13.5877 5.46867L13.5894 5.46183L13.591 5.45329L13.596 5.43962L13.5977 5.4362L13.6011 5.42595L13.6044 5.41227V5.41056L13.6077 5.3986L13.6111 5.38493L13.6144 5.37126L13.6178 5.35929V5.35759L13.6211 5.34391L13.6228 5.33366V5.33024L13.6261 5.31657L13.6278 5.30803L13.6295 5.30119L13.6328 5.28752L13.6345 5.28239L13.6362 5.27385L13.6395 5.26017V5.25676L13.6412 5.2465L13.6429 5.23283V5.23112L13.6445 5.21916L13.6462 5.20549L13.6479 5.19181L13.6496 5.17985V5.17814L13.6512 5.16447L13.6529 5.15422V5.14909L13.6546 5.13542V5.12858V5.12175L13.6563 5.10807V5.10295V5.0944L13.6579 5.08073V5.07731V5.06706V5.05339V5.04142V5.02775V5.01408V5.00041V4.98845V4.98503V4.97136V4.9611V4.95597V4.9423V4.93547V4.92863V4.91496V4.90983V4.88591V4.88249V4.87223V4.85856V4.85685V4.84318L13.6563 4.82951L13.6546 4.81584V4.80388V4.80046L13.6529 4.78679L13.6512 4.77653V4.7714L13.6496 4.75773V4.7509V4.74406L13.6479 4.73039C13.6261 4.54411 13.576 4.36296 13.499 4.19206L13.4907 4.17497C13.3401 3.86222 13.1026 3.58879 12.7849 3.40251L12.7698 3.39396L12.7548 3.38542L12.7447 3.38029L12.738 3.37687L12.723 3.36833L12.7079 3.35978L12.7046 3.35807L12.6929 3.35124L12.6778 3.3444L12.6644 3.33757L12.6628 3.33586L12.631 3.32048L12.6226 3.31706L12.6143 3.31364L12.5992 3.3068L12.5842 3.29997H12.5825L12.5691 3.29484L12.5541 3.28801L12.5423 3.28288L12.5373 3.28117L12.5206 3.27433L12.5055 3.2675L12.5005 3.26579L12.4905 3.26237L12.4738 3.25724L12.4587 3.25212L12.442 3.24699L12.4253 3.24186L12.4152 3.23845L12.4085 3.23674L12.3918 3.23161L12.3768 3.22477L12.3734 3.22306L12.36 3.21965L12.3433 3.21452L12.3299 3.2111H12.3266L12.3099 3.20768L12.2931 3.20427L12.2864 3.20256L12.2781 3.20085L12.2614 3.19743L12.2446 3.19401H12.243L12.2279 3.19059L12.2112 3.18718L12.1995 3.18547H12.1945L12.1777 3.18205L12.161 3.17863H12.156L12.1276 3.17521L12.1125 3.1735H12.1108L12.0941 3.17179L12.0774 3.17009H12.0673H12.0607L12.0439 3.16838L12.0272 3.16667H12.0239L12.0105 3.16496L11.9804 3.16325H11.977H11.9603H11.9436H11.9369H11.9268H11.9101H11.8934H11.8783H11.8616H11.8499H11.8449H11.8282H11.8114H11.8064H11.7947L11.778 3.16496L11.7746 3.16154H11.773L11.7563 3.16325C11.2261 3.20768 10.7226 3.49479 10.4132 3.98185ZM9.51338 5.29435L1.52702 12.1149L16.7789 8.21672C16.0162 7.47331 15.0963 6.64445 14.0694 5.97453C14.0393 6.04118 14.0058 6.10612 13.9707 6.16935C13.3067 7.34343 11.8382 7.74675 10.6892 7.06828C10.0486 6.69059 9.64384 6.05827 9.52342 5.36955L9.51338 5.29435ZM12.8451 5.78312C12.912 5.73698 12.9287 5.6447 12.8852 5.57634C12.8417 5.50798 12.7497 5.48918 12.6845 5.53532C12.5189 5.64811 12.3483 5.73356 12.1744 5.78996C12.0004 5.84636 11.8215 5.87712 11.6358 5.88224C11.5555 5.88395 11.492 5.9506 11.4937 6.03263C11.4953 6.11467 11.5606 6.17961 11.6408 6.1779C11.8533 6.17277 12.0607 6.13859 12.2614 6.07194C12.4621 6.007 12.6577 5.90959 12.8451 5.78312ZM0.816197 14.4101C0.933275 14.4699 1.05035 14.5348 1.16576 14.5981L1.1691 14.5998C2.71452 15.456 3.49225 14.6869 4.29842 13.8923C5.19824 13.0036 6.13151 12.0807 8.13521 13.1916C8.48979 13.3881 8.84269 13.5829 9.24578 13.5898C9.64886 13.5966 10.1138 13.4189 10.7042 12.872L10.7477 12.819C12.4688 11.0263 13.4405 11.5646 14.4306 12.1115C15.9777 12.9694 16.7555 12.2004 17.5599 11.404C17.6871 11.2775 17.8158 11.151 17.9463 11.0297C17.7841 10.3512 17.5566 9.66252 17.2589 8.96354C7.59331 11.3168 10.4366 10.6264 0.841285 12.9609C0.836268 13.0993 0.827905 13.6581 0.816197 14.4101ZM18.1119 11.8671C18.045 11.932 17.9798 11.997 17.9129 12.0636C17.013 12.9523 16.0798 13.8752 14.0761 12.7643C13.7215 12.5678 13.3686 12.373 12.9655 12.3661C12.5624 12.3593 12.0974 12.537 11.5087 13.0822L11.4636 13.1369C9.74252 14.9279 8.77078 14.3913 7.78063 13.8427L7.77729 13.841C6.23187 12.9865 5.45414 13.7538 4.64965 14.5485C3.74982 15.4389 2.81655 16.36 0.81118 15.2492L0.802817 15.2424L0.767694 17.6708C0.961708 17.758 1.14903 17.8622 1.33636 17.9665L1.3397 17.9682C2.8868 18.8261 3.66452 18.057 4.46901 17.2607C5.36884 16.372 6.30211 15.4491 8.30581 16.56C8.66039 16.7565 9.01329 16.9513 9.41805 16.9582C9.82113 16.965 10.2861 16.7873 10.8765 16.2404L10.9183 16.1908C12.641 14.3964 13.6128 14.9347 14.6029 15.4833C16.15 16.3395 16.9277 15.5722 17.7322 14.7758C17.8995 14.61 18.0684 14.4443 18.2423 14.2922C18.2524 14.1178 18.2574 13.9418 18.2591 13.7658C18.2641 13.1403 18.2173 12.508 18.1119 11.8671ZM18.1286 15.3927L18.0885 15.432C17.1886 16.3207 16.2554 17.2436 14.2517 16.1327C13.8971 15.9362 13.5442 15.7414 13.1411 15.7345C12.738 15.7277 12.2731 15.9054 11.6827 16.4523L11.6392 16.5053C9.91813 18.298 8.94639 17.7597 7.95792 17.2128C6.40916 16.3549 5.63143 17.1239 4.82694 17.9186C3.92711 18.8073 2.99384 19.7301 0.988468 18.6193L0.985123 18.6176C0.909859 18.5749 0.832923 18.5339 0.755986 18.4928C0.745951 19.3285 0.737588 19.9933 0.737588 20.2343L17.3074 18.3305C17.6954 17.3649 17.9747 16.3874 18.1286 15.3927Z" fill="#FFD6E8"/>
</g>
<defs>
<clipPath id="clip0_5_30">
<rect width="19" height="21" fill="white"/>
</clipPath>
</defs>
</svg>
