<svg width="50" height="50" viewBox="0 0 50 50" fill="none" xmlns="http://www.w3.org/2000/svg">
<path d="M25.0122 0.378906C14.7314 0.378906 11.7247 0.389512 11.1402 0.437997C9.03045 0.613376 7.71761 0.945573 6.28735 1.65769C5.18511 2.20504 4.31582 2.83951 3.45789 3.72891C1.89544 5.35088 0.948498 7.34633 0.605705 9.7183C0.439043 10.8698 0.39056 11.1047 0.380712 16.9865C0.376924 18.9471 0.380712 21.5274 0.380712 24.9884C0.380712 35.2611 0.392075 38.2649 0.441316 38.8482C0.611765 40.9013 0.933725 42.1929 1.61552 43.6058C2.91851 46.3103 5.40707 48.3406 8.3388 49.0982C9.35393 49.3596 10.4751 49.5035 11.9145 49.5717C12.5243 49.5982 18.74 49.6172 24.9595 49.6172C31.179 49.6172 37.3985 49.6096 37.9932 49.5793C39.6598 49.5009 40.6276 49.3709 41.6976 49.0944C44.6483 48.3331 47.0914 46.3331 48.4209 43.5906C49.0895 42.2119 49.4285 40.871 49.5819 38.9251C49.6152 38.5009 49.6292 31.7369 49.6292 24.9819C49.6292 18.2259 49.6141 11.4744 49.5807 11.0501C49.4254 9.07285 49.0864 7.7433 48.3963 6.338C47.83 5.18762 47.2013 4.32853 46.2884 3.45012C44.6593 1.89406 42.6669 0.947088 40.2928 0.604664C39.1424 0.438376 38.9133 0.389134 33.0271 0.378906H25.0122Z" fill="url(#paint0_radial_14_11)"/>
<path d="M25.0122 0.378906C14.7314 0.378906 11.7247 0.389512 11.1402 0.437997C9.03045 0.613376 7.71761 0.945573 6.28735 1.65769C5.18511 2.20504 4.31582 2.83951 3.45789 3.72891C1.89544 5.35088 0.948498 7.34633 0.605705 9.7183C0.439043 10.8698 0.39056 11.1047 0.380712 16.9865C0.376924 18.9471 0.380712 21.5274 0.380712 24.9884C0.380712 35.2611 0.392075 38.2649 0.441316 38.8482C0.611765 40.9013 0.933725 42.1929 1.61552 43.6058C2.91851 46.3103 5.40707 48.3406 8.3388 49.0982C9.35393 49.3596 10.4751 49.5035 11.9145 49.5717C12.5243 49.5982 18.74 49.6172 24.9595 49.6172C31.179 49.6172 37.3985 49.6096 37.9932 49.5793C39.6598 49.5009 40.6276 49.3709 41.6976 49.0944C44.6483 48.3331 47.0914 46.3331 48.4209 43.5906C49.0895 42.2119 49.4285 40.871 49.5819 38.9251C49.6152 38.5009 49.6292 31.7369 49.6292 24.9819C49.6292 18.2259 49.6141 11.4744 49.5807 11.0501C49.4254 9.07285 49.0864 7.7433 48.3963 6.338C47.83 5.18762 47.2013 4.32853 46.2884 3.45012C44.6593 1.89406 42.6669 0.947088 40.2928 0.604664C39.1424 0.438376 38.9133 0.389134 33.0271 0.378906H25.0122Z" fill="url(#paint1_radial_14_11)"/>
<path d="M25.0008 6.81836C20.063 6.81836 19.4434 6.83995 17.504 6.92821C15.5685 7.01684 14.2473 7.32328 13.0913 7.77291C11.8955 8.2373 10.8811 8.85851 9.87055 9.8695C8.85922 10.8801 8.23803 11.8945 7.77213 13.09C7.32139 14.2464 7.01458 15.568 6.92746 17.5028C6.84072 19.4422 6.81799 20.0623 6.81799 25.0002C6.81799 29.9381 6.83996 30.5559 6.92784 32.4953C7.01685 34.4309 7.32328 35.7521 7.77251 36.9081C8.23727 38.104 8.85846 39.1184 9.86942 40.129C10.8796 41.1403 11.894 41.7631 13.089 42.2275C14.2458 42.6771 15.5673 42.9835 17.5025 43.0722C19.4419 43.1604 20.0612 43.182 24.9985 43.182C29.9366 43.182 30.5544 43.1604 32.4937 43.0722C34.4293 42.9835 35.752 42.6771 36.9087 42.2275C38.1042 41.7631 39.117 41.1403 40.1272 40.129C41.1385 39.1184 41.7597 38.104 42.2256 36.9085C42.6726 35.7521 42.9794 34.4305 43.0703 32.4956C43.1574 30.5562 43.1801 29.9381 43.1801 25.0002C43.1801 20.0623 43.1574 19.4426 43.0703 17.5032C42.9794 15.5676 42.6726 14.2464 42.2256 13.0903C41.7597 11.8945 41.1385 10.8801 40.1272 9.8695C39.1159 8.85813 38.1045 8.23692 36.9076 7.77291C35.7486 7.32328 34.4266 7.01684 32.4911 6.92821C30.5517 6.83995 29.9343 6.81836 24.9951 6.81836H25.0008ZM23.3698 10.0949C23.8538 10.0941 24.394 10.0949 25.0008 10.0949C29.8552 10.0949 30.4305 10.1123 32.3475 10.1994C34.1202 10.2805 35.0823 10.5767 35.7232 10.8256C36.5716 11.1551 37.1765 11.549 37.8125 12.1854C38.4489 12.8218 38.8428 13.4278 39.1731 14.2763C39.4219 14.9165 39.7185 15.8786 39.7992 17.6513C39.8863 19.568 39.9052 20.1437 39.9052 24.996C39.9052 29.8483 39.8863 30.424 39.7992 32.3407C39.7181 34.1134 39.4219 35.0756 39.1731 35.7157C38.8435 36.5642 38.4489 37.1684 37.8125 37.8043C37.1762 38.4407 36.572 38.8346 35.7232 39.1642C35.083 39.4142 34.1202 39.7096 32.3475 39.7907C30.4309 39.8778 29.8552 39.8968 25.0008 39.8968C20.146 39.8968 19.5706 39.8778 17.654 39.7907C15.8814 39.7089 14.9193 39.4127 14.278 39.1638C13.4295 38.8343 12.8235 38.4403 12.1871 37.804C11.5508 37.1676 11.1569 36.5631 10.8266 35.7142C10.5777 35.074 10.2811 34.1119 10.2005 32.3392C10.1133 30.4225 10.0959 29.8468 10.0959 24.9915C10.0959 20.1362 10.1133 19.5634 10.2005 17.6468C10.2815 15.874 10.5777 14.9119 10.8266 14.271C11.1561 13.4225 11.5508 12.8165 12.1871 12.1801C12.8235 11.5437 13.4295 11.1498 14.278 10.8195C14.9189 10.5695 15.8814 10.274 17.654 10.1926C19.3313 10.1168 19.9812 10.0941 23.3698 10.0903V10.0949ZM34.7058 13.1138C33.5013 13.1138 32.524 14.09 32.524 15.2949C32.524 16.4994 33.5013 17.4767 34.7058 17.4767C35.9103 17.4767 36.8875 16.4994 36.8875 15.2949C36.8875 14.0903 35.9103 13.1131 34.7058 13.1131V13.1138ZM25.0008 15.6631C19.8445 15.6631 15.6639 19.8437 15.6639 25.0002C15.6639 30.1566 19.8445 34.3354 25.0008 34.3354C30.1571 34.3354 34.3361 30.1566 34.3361 25.0002C34.3361 19.8437 30.1567 15.6631 25.0004 15.6631H25.0008ZM25.0008 18.9396C28.3476 18.9396 31.0612 21.6528 31.0612 25.0002C31.0612 28.3471 28.3476 31.0608 25.0008 31.0608C21.6535 31.0608 18.9404 28.3471 18.9404 25.0002C18.9404 21.6528 21.6535 18.9396 25.0008 18.9396Z" fill="white"/>
<defs>
<radialGradient id="paint0_radial_14_11" cx="0" cy="0" r="1" gradientUnits="userSpaceOnUse" gradientTransform="translate(13.4612 53.4095) rotate(-90) scale(48.7988 45.3977)">
<stop stop-color="#FFDD55"/>
<stop offset="0.1" stop-color="#FFDD55"/>
<stop offset="0.5" stop-color="#FF543E"/>
<stop offset="1" stop-color="#C837AB"/>
</radialGradient>
<radialGradient id="paint1_radial_14_11" cx="0" cy="0" r="1" gradientUnits="userSpaceOnUse" gradientTransform="translate(-7.87064 3.92595) rotate(78.678) scale(21.8134 89.9361)">
<stop stop-color="#3771C8"/>
<stop offset="0.128" stop-color="#3771C8"/>
<stop offset="1" stop-color="#6600FF" stop-opacity="0"/>
</radialGradient>
</defs>
</svg>
