<svg width="50" height="49" viewBox="0 0 50 49" fill="none" xmlns="http://www.w3.org/2000/svg">
<path fill-rule="evenodd" clip-rule="evenodd" d="M11.2915 0H38.7085C41.7006 0.0084561 44.5676 1.18245 46.6833 3.26551C48.799 5.34856 49.9914 8.17137 50 11.1172V37.8868C49.9903 40.8319 48.7975 43.6537 46.6819 45.7359C44.5663 47.8181 41.6998 48.9916 38.7085 49H11.2915C8.30016 48.9916 5.43372 47.8181 3.31812 45.7359C1.20253 43.6537 0.00966151 40.8319 0 37.8868V11.1172C0.00858865 8.17137 1.20098 5.34856 3.31669 3.26551C5.4324 1.18245 8.29945 0.0084561 11.2915 0V0Z" fill="#1CA1F1"/>
<path fill-rule="evenodd" clip-rule="evenodd" d="M41.7277 14.286C40.4768 14.8338 39.1488 15.1917 37.7889 15.3477C39.219 14.5033 40.2912 13.1788 40.8081 11.6179C39.4602 12.404 37.9867 12.9594 36.4502 13.2604C35.509 12.2732 34.2883 11.5871 32.9463 11.291C31.6043 10.9949 30.203 11.1025 28.9239 11.5999C27.6448 12.0973 26.5469 12.9614 25.7725 14.0804C24.9981 15.1994 24.583 16.5216 24.5809 17.8756C24.5812 18.3932 24.6399 18.9091 24.7559 19.414C22.0277 19.2789 19.3589 18.5803 16.9228 17.3634C14.4868 16.1466 12.338 14.4388 10.616 12.351C10.0055 13.3823 9.68393 14.5546 9.68424 15.7483C9.68508 16.8582 9.96403 17.9507 10.4964 18.9291C11.0287 19.9075 11.798 20.7414 12.736 21.357C11.6466 21.3203 10.5814 21.0307 9.62728 20.5117V20.5998C9.62237 22.1632 10.1685 23.6799 11.1724 24.8912C12.1764 26.1024 13.576 26.9333 15.1326 27.2421C14.5424 27.3998 13.9336 27.4806 13.3219 27.4825C12.8877 27.4798 12.4546 27.4383 12.028 27.3583C12.4674 28.6997 13.321 29.8727 14.4698 30.7137C15.6186 31.5547 17.0054 32.0217 18.4367 32.0496C15.5561 34.2723 11.8983 35.2807 8.26416 34.8539C11.4022 36.8411 15.0556 37.8954 18.7866 37.8906C31.4006 37.8906 38.3179 27.5947 38.3179 18.6608C38.3179 18.3643 38.3179 18.0759 38.2975 17.7834C39.6421 16.8324 40.8014 15.6504 41.7196 14.294L41.7277 14.286Z" fill="white"/>
</svg>
